<mxfile host="app.diagrams.net" modified="2023-07-18T02:35:52.679Z" agent="Mozilla/5.0 (Windows NT 10.0; Win64; x64) AppleWebKit/537.36 (KHTML, like Gecko) Chrome/114.0.0.0 Safari/537.36" etag="byZc1qgzeu8oliVMVwd_" version="21.6.2" type="github">
  <diagram name="Page-1" id="74e2e168-ea6b-b213-b513-2b3c1d86103e">
    <mxGraphModel dx="1434" dy="756" grid="1" gridSize="10" guides="1" tooltips="1" connect="1" arrows="1" fold="1" page="1" pageScale="1" pageWidth="1100" pageHeight="850" background="none" math="0" shadow="0">
      <root>
        <mxCell id="0" />
        <mxCell id="1" parent="0" />
        <mxCell id="oeOyVbBo-13tilCD49F_-35" value="&lt;h2&gt;query&lt;/h2&gt;" style="rounded=0;whiteSpace=wrap;html=1;fillColor=#d5e8d4;strokeColor=#82b366;align=left;" vertex="1" parent="1">
          <mxGeometry x="220" y="780" width="400" height="430" as="geometry" />
        </mxCell>
        <mxCell id="oeOyVbBo-13tilCD49F_-19" value="&lt;h2&gt;upload&lt;/h2&gt;" style="rounded=0;whiteSpace=wrap;html=1;fillColor=#ffe6cc;strokeColor=#d79b00;align=left;" vertex="1" parent="1">
          <mxGeometry x="220" y="90" width="400" height="620" as="geometry" />
        </mxCell>
        <mxCell id="77e6c97f196da883-1" value="openapi ibutton integration" style="swimlane;html=1;childLayout=stackLayout;startSize=20;rounded=0;shadow=0;labelBackgroundColor=none;strokeWidth=1;fontFamily=Verdana;fontSize=8;align=center;" parent="1" vertex="1">
          <mxGeometry x="250" y="30" width="530" height="1350" as="geometry" />
        </mxCell>
        <mxCell id="77e6c97f196da883-2" value="client" style="swimlane;html=1;startSize=20;" parent="77e6c97f196da883-1" vertex="1">
          <mxGeometry y="20" width="160" height="1330" as="geometry" />
        </mxCell>
        <mxCell id="77e6c97f196da883-8" value="assemble ibutton&#39;s sign-in、sign-out message" style="rounded=1;whiteSpace=wrap;html=1;shadow=0;labelBackgroundColor=none;strokeWidth=1;fontFamily=Verdana;fontSize=8;align=center;" parent="77e6c97f196da883-2" vertex="1">
          <mxGeometry x="20" y="65" width="100" height="60" as="geometry" />
        </mxCell>
        <mxCell id="oeOyVbBo-13tilCD49F_-14" value="end" style="rounded=1;whiteSpace=wrap;html=1;shadow=0;labelBackgroundColor=none;strokeWidth=1;fontFamily=Verdana;fontSize=8;align=center;" vertex="1" parent="77e6c97f196da883-2">
          <mxGeometry x="20" y="550" width="100" height="60" as="geometry" />
        </mxCell>
        <mxCell id="oeOyVbBo-13tilCD49F_-33" value="end" style="rounded=1;whiteSpace=wrap;html=1;shadow=0;labelBackgroundColor=none;strokeWidth=1;fontFamily=Verdana;fontSize=8;align=center;" vertex="1" parent="77e6c97f196da883-2">
          <mxGeometry x="20" y="1040" width="100" height="60" as="geometry" />
        </mxCell>
        <mxCell id="77e6c97f196da883-26" style="edgeStyle=orthogonalEdgeStyle;rounded=1;html=1;labelBackgroundColor=none;startArrow=none;startFill=0;startSize=5;endArrow=classicThin;endFill=1;endSize=5;jettySize=auto;orthogonalLoop=1;strokeWidth=1;fontFamily=Verdana;fontSize=8" parent="77e6c97f196da883-1" source="77e6c97f196da883-8" target="77e6c97f196da883-11" edge="1">
          <mxGeometry relative="1" as="geometry" />
        </mxCell>
        <mxCell id="oeOyVbBo-13tilCD49F_-1" value="POST /openapi/v2/ibuttons" style="edgeLabel;html=1;align=center;verticalAlign=middle;resizable=0;points=[];" vertex="1" connectable="0" parent="77e6c97f196da883-26">
          <mxGeometry x="-0.1243" y="1" relative="1" as="geometry">
            <mxPoint as="offset" />
          </mxGeometry>
        </mxCell>
        <mxCell id="77e6c97f196da883-3" value="openapi" style="swimlane;html=1;startSize=20;" parent="77e6c97f196da883-1" vertex="1">
          <mxGeometry x="160" y="20" width="210" height="1330" as="geometry" />
        </mxCell>
        <mxCell id="oeOyVbBo-13tilCD49F_-6" value="" style="edgeStyle=orthogonalEdgeStyle;rounded=0;orthogonalLoop=1;jettySize=auto;html=1;" edge="1" parent="77e6c97f196da883-3" source="77e6c97f196da883-11" target="oeOyVbBo-13tilCD49F_-5">
          <mxGeometry relative="1" as="geometry" />
        </mxCell>
        <mxCell id="oeOyVbBo-13tilCD49F_-11" value="valid" style="edgeLabel;html=1;align=center;verticalAlign=middle;resizable=0;points=[];" vertex="1" connectable="0" parent="oeOyVbBo-13tilCD49F_-6">
          <mxGeometry x="-0.2857" y="4" relative="1" as="geometry">
            <mxPoint x="-6" y="5" as="offset" />
          </mxGeometry>
        </mxCell>
        <mxCell id="oeOyVbBo-13tilCD49F_-8" style="edgeStyle=orthogonalEdgeStyle;rounded=0;orthogonalLoop=1;jettySize=auto;html=1;exitX=0;exitY=0.5;exitDx=0;exitDy=0;entryX=0;entryY=0.5;entryDx=0;entryDy=0;" edge="1" parent="77e6c97f196da883-3" source="77e6c97f196da883-11" target="oeOyVbBo-13tilCD49F_-9">
          <mxGeometry relative="1" as="geometry">
            <mxPoint x="90" y="480" as="targetPoint" />
          </mxGeometry>
        </mxCell>
        <mxCell id="oeOyVbBo-13tilCD49F_-12" value="invalid" style="edgeLabel;html=1;align=center;verticalAlign=middle;resizable=0;points=[];" vertex="1" connectable="0" parent="oeOyVbBo-13tilCD49F_-8">
          <mxGeometry x="-0.4965" y="-1" relative="1" as="geometry">
            <mxPoint x="6" y="-10" as="offset" />
          </mxGeometry>
        </mxCell>
        <mxCell id="77e6c97f196da883-11" value="&lt;ul style=&quot;box-sizing: border-box; margin: 0px; padding: 0px; color: rgb(42, 43, 46); font-family: &amp;quot;PingFang SC&amp;quot;, &amp;quot;Segoe UI&amp;quot;, Arial, &amp;quot;Microsoft YaHei&amp;quot;, 微软雅黑, 宋体, &amp;quot;Malgun Gothic&amp;quot;, sans-serif; font-size: 14px; text-align: start;&quot;&gt;&lt;li style=&quot;box-sizing: border-box; margin: 0px; padding: 0px; list-style: none;&quot;&gt;&lt;p style=&quot;box-sizing: border-box; margin: 0px 0px 2px; padding: 0px; line-height: 21px; display: inline; font-size: var(--main-font-size); background-color: rgb(255, 255, 255);&quot; class=&quot;src grammarSection highlight&quot; data-group=&quot;1-1&quot;&gt;field validation, permission validation&lt;/p&gt;&lt;/li&gt;&lt;/ul&gt;" style="rounded=1;whiteSpace=wrap;html=1;shadow=0;labelBackgroundColor=none;strokeWidth=1;fontFamily=Verdana;fontSize=8;align=center;" parent="77e6c97f196da883-3" vertex="1">
          <mxGeometry x="15" y="160" width="155" height="60" as="geometry" />
        </mxCell>
        <mxCell id="oeOyVbBo-13tilCD49F_-10" style="edgeStyle=orthogonalEdgeStyle;rounded=0;orthogonalLoop=1;jettySize=auto;html=1;exitX=0.5;exitY=1;exitDx=0;exitDy=0;" edge="1" parent="77e6c97f196da883-3" source="oeOyVbBo-13tilCD49F_-5" target="oeOyVbBo-13tilCD49F_-9">
          <mxGeometry relative="1" as="geometry" />
        </mxCell>
        <mxCell id="oeOyVbBo-13tilCD49F_-5" value="save to DB" style="rounded=1;whiteSpace=wrap;html=1;shadow=0;labelBackgroundColor=none;strokeWidth=1;fontFamily=Verdana;fontSize=8;align=center;" vertex="1" parent="77e6c97f196da883-3">
          <mxGeometry x="42.5" y="290" width="100" height="60" as="geometry" />
        </mxCell>
        <mxCell id="oeOyVbBo-13tilCD49F_-9" value="response to client" style="rounded=1;whiteSpace=wrap;html=1;shadow=0;labelBackgroundColor=none;strokeWidth=1;fontFamily=Verdana;fontSize=8;align=center;" vertex="1" parent="77e6c97f196da883-3">
          <mxGeometry x="42.5" y="450" width="100" height="60" as="geometry" />
        </mxCell>
        <mxCell id="oeOyVbBo-13tilCD49F_-24" value="" style="edgeStyle=orthogonalEdgeStyle;rounded=0;orthogonalLoop=1;jettySize=auto;html=1;entryX=0.5;entryY=0;entryDx=0;entryDy=0;" edge="1" parent="77e6c97f196da883-3" source="oeOyVbBo-13tilCD49F_-21" target="oeOyVbBo-13tilCD49F_-26">
          <mxGeometry relative="1" as="geometry">
            <mxPoint x="92.5" y="850" as="targetPoint" />
          </mxGeometry>
        </mxCell>
        <mxCell id="oeOyVbBo-13tilCD49F_-25" value="GET /openapi/v2/ibuttons" style="edgeLabel;html=1;align=center;verticalAlign=middle;resizable=0;points=[];" vertex="1" connectable="0" parent="oeOyVbBo-13tilCD49F_-24">
          <mxGeometry x="-0.4918" relative="1" as="geometry">
            <mxPoint x="36" as="offset" />
          </mxGeometry>
        </mxCell>
        <mxCell id="oeOyVbBo-13tilCD49F_-21" value="assemble ibutton&#39;s query message" style="rounded=1;whiteSpace=wrap;html=1;shadow=0;labelBackgroundColor=none;strokeWidth=1;fontFamily=Verdana;fontSize=8;align=center;" vertex="1" parent="77e6c97f196da883-3">
          <mxGeometry x="-140" y="740" width="100" height="60" as="geometry" />
        </mxCell>
        <mxCell id="oeOyVbBo-13tilCD49F_-28" value="" style="edgeStyle=orthogonalEdgeStyle;rounded=0;orthogonalLoop=1;jettySize=auto;html=1;" edge="1" parent="77e6c97f196da883-3" source="oeOyVbBo-13tilCD49F_-26" target="oeOyVbBo-13tilCD49F_-27">
          <mxGeometry relative="1" as="geometry" />
        </mxCell>
        <mxCell id="oeOyVbBo-13tilCD49F_-29" value="valid" style="edgeLabel;html=1;align=center;verticalAlign=middle;resizable=0;points=[];" vertex="1" connectable="0" parent="oeOyVbBo-13tilCD49F_-28">
          <mxGeometry x="-0.2571" relative="1" as="geometry">
            <mxPoint as="offset" />
          </mxGeometry>
        </mxCell>
        <mxCell id="oeOyVbBo-13tilCD49F_-26" value="&lt;ul style=&quot;box-sizing: border-box; margin: 0px; padding: 0px; color: rgb(42, 43, 46); font-family: &amp;quot;PingFang SC&amp;quot;, &amp;quot;Segoe UI&amp;quot;, Arial, &amp;quot;Microsoft YaHei&amp;quot;, 微软雅黑, 宋体, &amp;quot;Malgun Gothic&amp;quot;, sans-serif; font-size: 14px; text-align: start;&quot;&gt;&lt;li style=&quot;box-sizing: border-box; margin: 0px; padding: 0px; list-style: none;&quot;&gt;&lt;p style=&quot;box-sizing: border-box; margin: 0px 0px 2px; padding: 0px; line-height: 21px; display: inline; font-size: var(--main-font-size); background-color: rgb(255, 255, 255);&quot; class=&quot;src grammarSection highlight&quot; data-group=&quot;1-1&quot;&gt;field validation, permission validation&lt;/p&gt;&lt;/li&gt;&lt;/ul&gt;" style="rounded=1;whiteSpace=wrap;html=1;shadow=0;labelBackgroundColor=none;strokeWidth=1;fontFamily=Verdana;fontSize=8;align=center;" vertex="1" parent="77e6c97f196da883-3">
          <mxGeometry x="15" y="860" width="155" height="60" as="geometry" />
        </mxCell>
        <mxCell id="oeOyVbBo-13tilCD49F_-27" value="&lt;ul style=&quot;box-sizing: border-box; margin: 0px; padding: 0px; color: rgb(42, 43, 46); font-family: &amp;quot;PingFang SC&amp;quot;, &amp;quot;Segoe UI&amp;quot;, Arial, &amp;quot;Microsoft YaHei&amp;quot;, 微软雅黑, 宋体, &amp;quot;Malgun Gothic&amp;quot;, sans-serif; font-size: 14px; text-align: start;&quot;&gt;&lt;li style=&quot;box-sizing: border-box; margin: 0px; padding: 0px; list-style: none;&quot;&gt;&lt;p style=&quot;box-sizing: border-box; margin: 0px 0px 2px; padding: 0px; line-height: 21px; display: inline; font-size: var(--main-font-size); background-color: rgb(255, 255, 255);&quot; class=&quot;src grammarSection highlight&quot; data-group=&quot;1-1&quot;&gt;query from DB&lt;/p&gt;&lt;/li&gt;&lt;/ul&gt;" style="rounded=1;whiteSpace=wrap;html=1;shadow=0;labelBackgroundColor=none;strokeWidth=1;fontFamily=Verdana;fontSize=8;align=center;" vertex="1" parent="77e6c97f196da883-3">
          <mxGeometry x="15" y="990" width="155" height="60" as="geometry" />
        </mxCell>
        <mxCell id="77e6c97f196da883-4" value="DB" style="swimlane;html=1;startSize=20;" parent="77e6c97f196da883-1" vertex="1">
          <mxGeometry x="370" y="20" width="160" height="1330" as="geometry" />
        </mxCell>
        <mxCell id="oeOyVbBo-13tilCD49F_-2" value="DB" style="shape=cylinder3;whiteSpace=wrap;html=1;boundedLbl=1;backgroundOutline=1;size=15;" vertex="1" parent="77e6c97f196da883-4">
          <mxGeometry x="50" y="280" width="60" height="80" as="geometry" />
        </mxCell>
        <mxCell id="oeOyVbBo-13tilCD49F_-7" style="edgeStyle=orthogonalEdgeStyle;rounded=0;orthogonalLoop=1;jettySize=auto;html=1;exitX=1;exitY=0.5;exitDx=0;exitDy=0;" edge="1" parent="77e6c97f196da883-1" source="oeOyVbBo-13tilCD49F_-5" target="oeOyVbBo-13tilCD49F_-2">
          <mxGeometry relative="1" as="geometry" />
        </mxCell>
        <mxCell id="oeOyVbBo-13tilCD49F_-13" style="edgeStyle=orthogonalEdgeStyle;rounded=0;orthogonalLoop=1;jettySize=auto;html=1;exitX=0.5;exitY=1;exitDx=0;exitDy=0;" edge="1" parent="77e6c97f196da883-1" source="oeOyVbBo-13tilCD49F_-9" target="oeOyVbBo-13tilCD49F_-14">
          <mxGeometry relative="1" as="geometry">
            <mxPoint x="240" y="600" as="targetPoint" />
            <Array as="points">
              <mxPoint x="253" y="600" />
            </Array>
          </mxGeometry>
        </mxCell>
        <mxCell id="oeOyVbBo-13tilCD49F_-31" style="edgeStyle=orthogonalEdgeStyle;rounded=0;orthogonalLoop=1;jettySize=auto;html=1;exitX=0.5;exitY=1;exitDx=0;exitDy=0;exitPerimeter=0;entryX=1;entryY=0.5;entryDx=0;entryDy=0;" edge="1" parent="77e6c97f196da883-1" source="oeOyVbBo-13tilCD49F_-2" target="oeOyVbBo-13tilCD49F_-27">
          <mxGeometry relative="1" as="geometry" />
        </mxCell>
        <mxCell id="oeOyVbBo-13tilCD49F_-34" value="" style="edgeStyle=orthogonalEdgeStyle;rounded=0;orthogonalLoop=1;jettySize=auto;html=1;exitX=0.5;exitY=1;exitDx=0;exitDy=0;" edge="1" parent="77e6c97f196da883-1" source="oeOyVbBo-13tilCD49F_-27" target="oeOyVbBo-13tilCD49F_-33">
          <mxGeometry relative="1" as="geometry">
            <mxPoint x="480" y="1090" as="targetPoint" />
            <mxPoint x="663" y="1120" as="sourcePoint" />
          </mxGeometry>
        </mxCell>
      </root>
    </mxGraphModel>
  </diagram>
</mxfile>
